<svg id="Location-Person-Filled--Streamline-Carbon" xmlns="http://www.w3.org/2000/svg" viewBox="0 0 16 16" height="16" width="16"><desc>Location Person Filled Streamline Icon: https://streamlinehq.com</desc><defs></defs><path id="_inner-path_" d="M10 9.5h-1v-1h-2v1h-1v-1a1.00105 1.00105 0 0 1 1 -1h2a1.00105 1.00105 0 0 1 1 1Zm-0.5 -4a1.5 1.5 0 1 0 -1.5 1.5 1.50165 1.50165 0 0 0 1.5 -1.5Zm-1 0a0.5 0.5 0 1 1 -0.5 -0.5 0.50055 0.50055 0 0 1 0.5 0.5Z" fill="none" stroke-width="0.5"></path><path d="M7.5 5.5a0.5 0.5 0 1 0 1 0 0.5 0.5 0 1 0 -1 0" fill="#3c1fcb" stroke-width="0.5"></path><path d="M8 1A5.5067 5.5067 0 0 0 2.5 6.5a5.44425 5.44425 0 0 0 1.10815 3.3s0.15 0.19725 0.1741 0.22585L8 15l4.2195 -4.9763c0.0222 -0.02665 0.17235 -0.2239 0.17235 -0.2239l0.00075 -0.0012A5.4423 5.4423 0 0 0 13.5 6.5 5.5067 5.5067 0 0 0 8 1Zm0 3a1.5 1.5 0 1 1 -1.5 1.5 1.50165 1.50165 0 0 1 1.5 -1.5Zm2 5.5h-1v-1h-2v1h-1v-1a1.00115 1.00115 0 0 1 1 -1h2a1.00115 1.00115 0 0 1 1 1Z" fill="#3c1fcb" stroke-width="0.5"></path><path id="_Transparent_Rectangle_" d="M0 0h16v16H0Z" fill="none" stroke-width="0.5"></path></svg>